{"title":"V for Vendetta 2006 720p BluRay QEBSx AAC20 MP4-FASM","uid":8874555,"size":2537230963,"categoryP":"video","categoryS":"hd___movies","magnet":"?xt=urn:btih:3b45fa9e0d584cbf7dd9b25e8dfc2c0d973554e1&amp;dn=V+for+Vendetta+2006+720p+BluRay+QEBSx+AAC20+MP4-FASM&amp;tr=udp%3A%2F%2Ftracker.openbittorrent.com%3A80&amp;tr=udp%3A%2F%2Fopen.demonii.com%3A1337&amp;tr=udp%3A%2F%2Ftracker.coppersurfer.tk%3A6969&amp;tr=udp%3A%2F%2Fexodus.desync.com%3A6969","seeders":9,"leechers":2,"uploader":"SaM","files":15,"time":1378158214,"description":" &lt;a href=&quot;http://www.imdb.com/title/tt0434409/&quot; rel=&quot;nofollow&quot; target=&quot;_NEW&quot;&gt;http://www.imdb.com/title/tt0434409/&lt;/a&gt;\n\nPlot: A shadowy freedom fighter known only as &quot;V&quot; uses guerrilla tactics to fight\nagainst his terrorist, totalitarian society. Upon rescuing a girl from the secret\npolice, he also finds his best chance at having an ally.\n\nRelease with the new improved QEBSx_2 engine.\n\nSUBTITLES:\nENGLISH, POLISH others from other BluRay releases on subscene.com\n\nGeneral:\nComplete name                  : V_for_Vendetta_2006_720p_BluRay_QEBSx_AAC20_MP4-FASM.mp4\nFormat                         : MPEG-4\nFormat profile                 : Base Media\nCodec ID                       : isom\nFile size                      : 2.33 GiB\nDuration                       : 2h 12mn\nOverall bit rate mode          : Variable\nOverall bit rate               : 2 516 Kbps\nEncoded date                   : UTC 2013-07-19 23:19:53\nTagged date                    : UTC 2013-07-19 23:19:53\n\nVideo\nID                             : 1\nFormat                         : AVC\nFormat/Info                    : Advanced Video Codec\nFormat profile                 : &lt;a class=&quot;__cf_email__&quot; href=&quot;/cdn-cgi/l/email-protection&quot; data-cfemail=&quot;a5edccc2cde5e9968b94&quot;&gt;[email&amp;#160;protected]&lt;/a&gt;&lt;script cf-hash='f9e31' type=&quot;text/javascript&quot;&gt;\n/* &lt;![CDATA[ */!function(){try{var t=&quot;currentScript&quot;in document?document.currentScript:function(){for(var t=document.getElementsByTagName(&quot;script&quot;),e=t.length;e--;)if(t[e].getAttribute(&quot;cf-hash&quot;))return t[e]}();if(t&amp;&amp;t.previousSibling){var e,r,n,i,c=t.previousSibling,a=c.getAttribute(&quot;data-cfemail&quot;);if(a){for(e=&quot;&quot;,r=parseInt(a.substr(0,2),16),n=2;a.length-n;n+=2)i=parseInt(a.substr(n,2),16)^r,e+=String.fromCharCode(i);e=document.createTextNode(e),c.parentNode.replaceChild(e,c)}}}catch(u){}}();/* ]]&gt; */&lt;/script&gt;\nFormat settings, CABAC         : Yes\nFormat settings, ReFrames      : 5 frames\nCodec ID                       : avc1\nCodec ID/Info                  : Advanced Video Coding\nDuration                       : 2h 12mn\nBit rate                       : 2 391 Kbps\nMaximum bit rate               : 7 408 Kbps\nWidth                          : 1 280 pixels\nHeight                         : 528 pixels\nDisplay aspect ratio           : 2.40:1\nFrame rate mode                : Constant\nFrame rate                     : 23.976 fps\nColor space                    : YUV\nChroma subsampling             : 4:2:0\nBit depth                      : 8 bits\nScan type                      : Progressive\nBits/(Pixel*Frame)             : 0.148\nStream size                    : 2.21 GiB (95%)\nTitle                          : 1280x528.264#trackID=1:fps=23.976 - Imported with GPAC 0.5.0-rev4065\nWriting library                : FASM Quality Enhancer Bitrate Squeezer X.2 (c)2013 Fachman\nEncoded date                   : UTC 2013-07-19 23:19:53\nTagged date                    : UTC 2013-07-19 23:21:41\nColor primaries                : BT.709\nTransfer characteristics       : BT.709\nMatrix coefficients            : BT.709\n\nAudio\nID                             : 2\nFormat                         : AAC\nFormat/Info                    : Advanced Audio Codec\nFormat profile                 : LC\nCodec ID                       : 40\nDuration                       : 2h 12mn\nBit rate mode                  : Variable\nBit rate                       : 121 Kbps\nMaximum bit rate               : 205 Kbps\nChannel(s)                     : 2 channels\nChannel positions              : Front: L R\nSampling rate                  : 48.0 KHz\nCompression mode               : Lossy\nStream size                    : 115 MiB (5%)\nLanguage                       : English\nEncoded date                   : UTC 2013-07-19 23:21:37\nTagged date                    : UTC 2013-07-19 23:21:41\n\nMenu\n00:00:00.000                   : : en:Remember, Remember\n00:02:24.310                   : : en:Man in a Mask\n00:09:07.880                   : : en:Rooftop Concert\n00:11:00.409                   : : en:Lead on the Girl\n00:16:26.985                   : : en:VTV\n00:21:56.648                   : : en:Response Time\n00:25:01.500                   : : en:Captive for a Year\n00:30:09.808                   : : en:Symbolic Acts\n00:35:37.468                   : : en:Prothero's Past\n00:40:37.435                   : : en:Afraid All the Time\n00:43:14.258                   : : en:No Mercy for the Bishop\n00:48:02.713                   : : en:Creedy's Threat\n00:49:40.978                   : : en:Mystery Woman\n00:54:11.081                   : : en:Bedside Manners\n00:56:39.562                   : : en:Man From Room V\n01:00:31.294                   : : en:What If?\n01:04:47.049                   : : en:Gotcha\n01:09:41.177                   : : en:Process Her\n01:12:07.489                   : : en:Valerie's Autobiography\n01:18:49.725                   : : en:Ready to Die\n01:21:13.034                   : : en:God is in the Rain\n01:26:01.656                   : : en:Valerie's Legacy\n01:29:20.688                   : : en:Can You Believe This?\n01:32:08.356                   : : en:Pathogen Path to Power\n01:36:21.275                   : : en:A Man As Smart\n01:39:28.462                   : : en:Perfect Pattern\n01:44:17.584                   : : en:Revolution Eve Dance\n01:48:50.357                   : : en:End of the Tunnel\n01:52:03.717                   : : en:Swift Justice\n01:53:57.664                   : : en:V's Turn\n01:57:51.564                   : : en:Gift of Love\n01:59:35.334                   : : en:All of Us\n02:04:38.471                   : : en:End Credits\n\nSCREENSHOTS:\n &lt;a href=&quot;\nhttp://screenshotcomparison.com/comparison/38890&quot; rel=&quot;nofollow&quot; target=&quot;_NEW&quot;&gt;\nhttp://screenshotcomparison.com/comparison/38890&lt;/a&gt;","torrent":{"xt":"urn:btih:3b45fa9e0d584cbf7dd9b25e8dfc2c0d973554e1","amp;dn":"V+for+Vendetta+2006+720p+BluRay+QEBSx+AAC20+MP4-FASM","amp;tr":["udp%3A%2F%2Ftracker.openbittorrent.com%3A80","udp%3A%2F%2Fopen.demonii.com%3A1337","udp%3A%2F%2Ftracker.coppersurfer.tk%3A6969","udp%3A%2F%2Fexodus.desync.com%3A6969"],"infoHash":"3b45fa9e0d584cbf7dd9b25e8dfc2c0d973554e1","infoHashBuffer":{"type":"Buffer","data":[59,69,250,158,13,88,76,191,125,217,178,94,141,252,44,13,151,53,84,225]},"announce":[],"urlList":[]}}